<mxfile host="app.diagrams.net" modified="2024-05-27T11:48:20.558Z" agent="Mozilla/5.0 (Windows NT 10.0; Win64; x64) AppleWebKit/537.36 (KHTML, like Gecko) Chrome/125.0.0.0 Safari/537.36" etag="tw_6baKwF2_vkISFT-yI" version="24.4.8" type="device">
  <diagram name="Страница — 1" id="V_yHfa7E8EKa4qNhfpcV">
    <mxGraphModel dx="3452" dy="1473" grid="1" gridSize="10" guides="1" tooltips="1" connect="1" arrows="1" fold="1" page="1" pageScale="1" pageWidth="827" pageHeight="1169" math="0" shadow="0">
      <root>
        <mxCell id="0" />
        <mxCell id="1" parent="0" />
        <mxCell id="qmBoPjlOPHL58pMZ6DA_-38" value="" style="rounded=0;whiteSpace=wrap;html=1;" vertex="1" parent="1">
          <mxGeometry x="50" y="430" width="10" height="20" as="geometry" />
        </mxCell>
        <mxCell id="qmBoPjlOPHL58pMZ6DA_-30" value="" style="rounded=0;whiteSpace=wrap;html=1;" vertex="1" parent="1">
          <mxGeometry x="50" y="290" width="10" height="20" as="geometry" />
        </mxCell>
        <mxCell id="qmBoPjlOPHL58pMZ6DA_-29" value="" style="rounded=0;whiteSpace=wrap;html=1;" vertex="1" parent="1">
          <mxGeometry x="50" y="200" width="10" height="20" as="geometry" />
        </mxCell>
        <mxCell id="qmBoPjlOPHL58pMZ6DA_-11" value="Sequence диаграмма(модуль логина)" style="text;html=1;align=center;verticalAlign=middle;resizable=0;points=[];autosize=1;strokeColor=none;fillColor=none;" vertex="1" parent="1">
          <mxGeometry width="230" height="30" as="geometry" />
        </mxCell>
        <mxCell id="qmBoPjlOPHL58pMZ6DA_-12" value="" style="shape=umlLifeline;perimeter=lifelinePerimeter;whiteSpace=wrap;html=1;container=1;dropTarget=0;collapsible=0;recursiveResize=0;outlineConnect=0;portConstraint=eastwest;newEdgeStyle={&quot;curved&quot;:0,&quot;rounded&quot;:0};participant=umlActor;" vertex="1" parent="1">
          <mxGeometry x="45" y="100" width="20" height="700" as="geometry" />
        </mxCell>
        <mxCell id="qmBoPjlOPHL58pMZ6DA_-13" value="User" style="text;html=1;align=center;verticalAlign=middle;resizable=0;points=[];autosize=1;strokeColor=none;fillColor=none;" vertex="1" parent="1">
          <mxGeometry x="30" y="70" width="50" height="30" as="geometry" />
        </mxCell>
        <mxCell id="qmBoPjlOPHL58pMZ6DA_-14" value="&lt;font style=&quot;font-size: 11px;&quot;&gt;Линия жизни&lt;/font&gt;&lt;div style=&quot;font-size: 11px;&quot;&gt;&lt;font style=&quot;font-size: 11px;&quot;&gt;(Сколько живет&amp;nbsp;&lt;/font&gt;&lt;/div&gt;&lt;div style=&quot;font-size: 11px;&quot;&gt;&lt;font style=&quot;font-size: 11px;&quot;&gt;какое-то действие)&lt;/font&gt;&lt;/div&gt;" style="text;html=1;align=center;verticalAlign=middle;resizable=0;points=[];autosize=1;strokeColor=none;fillColor=none;" vertex="1" parent="1">
          <mxGeometry x="55" y="140" width="120" height="50" as="geometry" />
        </mxCell>
        <mxCell id="qmBoPjlOPHL58pMZ6DA_-15" value="LoginPage: Login Page" style="shape=umlLifeline;perimeter=lifelinePerimeter;whiteSpace=wrap;html=1;container=1;dropTarget=0;collapsible=0;recursiveResize=0;outlineConnect=0;portConstraint=eastwest;newEdgeStyle={&quot;curved&quot;:0,&quot;rounded&quot;:0};" vertex="1" parent="1">
          <mxGeometry x="220" y="100" width="100" height="700" as="geometry" />
        </mxCell>
        <mxCell id="qmBoPjlOPHL58pMZ6DA_-20" value="" style="html=1;points=[[0,0,0,0,5],[0,1,0,0,-5],[1,0,0,0,5],[1,1,0,0,-5]];perimeter=orthogonalPerimeter;outlineConnect=0;targetShapes=umlLifeline;portConstraint=eastwest;newEdgeStyle={&quot;curved&quot;:0,&quot;rounded&quot;:0};" vertex="1" parent="qmBoPjlOPHL58pMZ6DA_-15">
          <mxGeometry x="45" y="100" width="10" height="80" as="geometry" />
        </mxCell>
        <mxCell id="qmBoPjlOPHL58pMZ6DA_-26" value="" style="html=1;points=[[0,0,0,0,5],[0,1,0,0,-5],[1,0,0,0,5],[1,1,0,0,-5]];perimeter=orthogonalPerimeter;outlineConnect=0;targetShapes=umlLifeline;portConstraint=eastwest;newEdgeStyle={&quot;curved&quot;:0,&quot;rounded&quot;:0};" vertex="1" parent="qmBoPjlOPHL58pMZ6DA_-15">
          <mxGeometry x="45" y="190" width="10" height="80" as="geometry" />
        </mxCell>
        <mxCell id="qmBoPjlOPHL58pMZ6DA_-27" value="Enter a password" style="html=1;verticalAlign=bottom;startArrow=oval;endArrow=block;startSize=8;curved=0;rounded=0;entryX=0;entryY=0;entryDx=0;entryDy=5;" edge="1" target="qmBoPjlOPHL58pMZ6DA_-26" parent="qmBoPjlOPHL58pMZ6DA_-15">
          <mxGeometry relative="1" as="geometry">
            <mxPoint x="-165" y="195" as="sourcePoint" />
          </mxGeometry>
        </mxCell>
        <mxCell id="qmBoPjlOPHL58pMZ6DA_-37" value="" style="html=1;points=[[0,0,0,0,5],[0,1,0,0,-5],[1,0,0,0,5],[1,1,0,0,-5]];perimeter=orthogonalPerimeter;outlineConnect=0;targetShapes=umlLifeline;portConstraint=eastwest;newEdgeStyle={&quot;curved&quot;:0,&quot;rounded&quot;:0};" vertex="1" parent="qmBoPjlOPHL58pMZ6DA_-15">
          <mxGeometry x="45" y="330" width="10" height="80" as="geometry" />
        </mxCell>
        <mxCell id="qmBoPjlOPHL58pMZ6DA_-16" value="Объекты, с которыми&amp;nbsp;&lt;div&gt;мы работает&lt;/div&gt;" style="text;html=1;align=center;verticalAlign=middle;resizable=0;points=[];autosize=1;strokeColor=none;fillColor=none;" vertex="1" parent="1">
          <mxGeometry x="195" y="60" width="150" height="40" as="geometry" />
        </mxCell>
        <mxCell id="qmBoPjlOPHL58pMZ6DA_-17" value="Aunthentication: Aunthentication Module&amp;nbsp;" style="shape=umlLifeline;perimeter=lifelinePerimeter;whiteSpace=wrap;html=1;container=1;dropTarget=0;collapsible=0;recursiveResize=0;outlineConnect=0;portConstraint=eastwest;newEdgeStyle={&quot;curved&quot;:0,&quot;rounded&quot;:0};" vertex="1" parent="1">
          <mxGeometry x="450" y="100" width="100" height="700" as="geometry" />
        </mxCell>
        <mxCell id="qmBoPjlOPHL58pMZ6DA_-21" value="Enter a username" style="html=1;verticalAlign=bottom;startArrow=oval;endArrow=block;startSize=8;curved=0;rounded=0;entryX=0;entryY=0;entryDx=0;entryDy=5;" edge="1" target="qmBoPjlOPHL58pMZ6DA_-20" parent="1" source="qmBoPjlOPHL58pMZ6DA_-12">
          <mxGeometry relative="1" as="geometry">
            <mxPoint x="195" y="205" as="sourcePoint" />
          </mxGeometry>
        </mxCell>
        <mxCell id="qmBoPjlOPHL58pMZ6DA_-28" value="Запросы к другому объекту" style="text;html=1;align=center;verticalAlign=middle;whiteSpace=wrap;rounded=0;" vertex="1" parent="1">
          <mxGeometry x="130" y="230" width="60" height="30" as="geometry" />
        </mxCell>
        <mxCell id="qmBoPjlOPHL58pMZ6DA_-36" value="Click on the login button" style="html=1;verticalAlign=bottom;startArrow=oval;endArrow=block;startSize=8;curved=0;rounded=0;entryX=0;entryY=0;entryDx=0;entryDy=5;" edge="1" parent="1" source="qmBoPjlOPHL58pMZ6DA_-38">
          <mxGeometry relative="1" as="geometry">
            <mxPoint x="55" y="440" as="sourcePoint" />
            <mxPoint x="265" y="440" as="targetPoint" />
          </mxGeometry>
        </mxCell>
        <mxCell id="qmBoPjlOPHL58pMZ6DA_-39" value="" style="html=1;verticalAlign=bottom;startArrow=oval;endArrow=block;startSize=8;curved=0;rounded=0;entryX=0;entryY=0;entryDx=0;entryDy=5;" edge="1" parent="1" target="qmBoPjlOPHL58pMZ6DA_-38">
          <mxGeometry relative="1" as="geometry">
            <mxPoint x="55" y="440" as="sourcePoint" />
            <mxPoint x="265" y="440" as="targetPoint" />
          </mxGeometry>
        </mxCell>
        <mxCell id="qmBoPjlOPHL58pMZ6DA_-40" style="rounded=0;orthogonalLoop=1;jettySize=auto;html=1;" edge="1" parent="1" source="qmBoPjlOPHL58pMZ6DA_-37" target="qmBoPjlOPHL58pMZ6DA_-17">
          <mxGeometry relative="1" as="geometry" />
        </mxCell>
        <mxCell id="qmBoPjlOPHL58pMZ6DA_-41" value="" style="rounded=0;whiteSpace=wrap;html=1;" vertex="1" parent="1">
          <mxGeometry x="495" y="470" width="10" height="280" as="geometry" />
        </mxCell>
        <mxCell id="qmBoPjlOPHL58pMZ6DA_-42" value="Send user login info" style="text;html=1;align=center;verticalAlign=middle;resizable=0;points=[];autosize=1;strokeColor=none;fillColor=none;" vertex="1" parent="1">
          <mxGeometry x="320" y="440" width="130" height="30" as="geometry" />
        </mxCell>
        <mxCell id="qmBoPjlOPHL58pMZ6DA_-44" value="Validate&amp;nbsp;&lt;div&gt;user data&lt;/div&gt;" style="text;html=1;align=center;verticalAlign=middle;resizable=0;points=[];autosize=1;strokeColor=none;fillColor=none;" vertex="1" parent="1">
          <mxGeometry x="525" y="480" width="70" height="40" as="geometry" />
        </mxCell>
        <mxCell id="qmBoPjlOPHL58pMZ6DA_-45" value="alt" style="shape=umlFrame;whiteSpace=wrap;html=1;pointerEvents=0;" vertex="1" parent="1">
          <mxGeometry x="-50" y="540" width="630" height="260" as="geometry" />
        </mxCell>
        <mxCell id="qmBoPjlOPHL58pMZ6DA_-46" style="rounded=0;orthogonalLoop=1;jettySize=auto;html=1;entryX=0.985;entryY=0.529;entryDx=0;entryDy=0;entryPerimeter=0;edgeStyle=orthogonalEdgeStyle;" edge="1" parent="1" source="qmBoPjlOPHL58pMZ6DA_-41" target="qmBoPjlOPHL58pMZ6DA_-41">
          <mxGeometry relative="1" as="geometry" />
        </mxCell>
        <mxCell id="qmBoPjlOPHL58pMZ6DA_-47" value="Блок условия(alt)" style="text;html=1;align=center;verticalAlign=middle;resizable=0;points=[];autosize=1;strokeColor=none;fillColor=none;" vertex="1" parent="1">
          <mxGeometry x="20" y="510" width="120" height="30" as="geometry" />
        </mxCell>
        <mxCell id="qmBoPjlOPHL58pMZ6DA_-48" value="Рекурсия" style="text;html=1;align=center;verticalAlign=middle;resizable=0;points=[];autosize=1;strokeColor=none;fillColor=none;" vertex="1" parent="1">
          <mxGeometry x="525" y="450" width="70" height="30" as="geometry" />
        </mxCell>
        <mxCell id="qmBoPjlOPHL58pMZ6DA_-49" style="edgeStyle=orthogonalEdgeStyle;rounded=0;orthogonalLoop=1;jettySize=auto;html=1;" edge="1" parent="1" source="qmBoPjlOPHL58pMZ6DA_-45" target="qmBoPjlOPHL58pMZ6DA_-45">
          <mxGeometry relative="1" as="geometry" />
        </mxCell>
        <mxCell id="qmBoPjlOPHL58pMZ6DA_-50" value="" style="endArrow=none;html=1;endSize=12;startArrow=none;startSize=14;startFill=0;edgeStyle=orthogonalEdgeStyle;align=left;verticalAlign=bottom;rounded=0;endFill=0;dashed=1;" edge="1" parent="1">
          <mxGeometry x="-1" y="30" relative="1" as="geometry">
            <mxPoint x="-10" y="680" as="sourcePoint" />
            <mxPoint x="580" y="680" as="targetPoint" />
            <mxPoint as="offset" />
          </mxGeometry>
        </mxCell>
        <mxCell id="qmBoPjlOPHL58pMZ6DA_-51" value="&lt;div&gt;&lt;br&gt;&lt;/div&gt;&lt;div&gt;&lt;br&gt;&lt;/div&gt;" style="edgeLabel;html=1;align=center;verticalAlign=middle;resizable=0;points=[];" vertex="1" connectable="0" parent="qmBoPjlOPHL58pMZ6DA_-50">
          <mxGeometry x="-0.995" y="13" relative="1" as="geometry">
            <mxPoint as="offset" />
          </mxGeometry>
        </mxCell>
        <mxCell id="qmBoPjlOPHL58pMZ6DA_-52" value="(correct)" style="text;html=1;align=center;verticalAlign=middle;resizable=0;points=[];autosize=1;strokeColor=none;fillColor=none;" vertex="1" parent="1">
          <mxGeometry x="-50" y="578" width="70" height="30" as="geometry" />
        </mxCell>
        <mxCell id="qmBoPjlOPHL58pMZ6DA_-53" value="(incorrect)" style="text;html=1;align=center;verticalAlign=middle;resizable=0;points=[];autosize=1;strokeColor=none;fillColor=none;" vertex="1" parent="1">
          <mxGeometry x="-55" y="690" width="80" height="30" as="geometry" />
        </mxCell>
        <mxCell id="qmBoPjlOPHL58pMZ6DA_-54" value="" style="rounded=0;whiteSpace=wrap;html=1;" vertex="1" parent="1">
          <mxGeometry x="265" y="578" width="10" height="62" as="geometry" />
        </mxCell>
        <mxCell id="qmBoPjlOPHL58pMZ6DA_-55" style="rounded=0;orthogonalLoop=1;jettySize=auto;html=1;entryX=1;entryY=0.5;entryDx=0;entryDy=0;dashed=1;" edge="1" parent="1" source="qmBoPjlOPHL58pMZ6DA_-41" target="qmBoPjlOPHL58pMZ6DA_-54">
          <mxGeometry relative="1" as="geometry">
            <mxPoint x="495" y="601.0368503482854" as="sourcePoint" />
            <mxPoint x="274.6100000000001" y="618.9699999999999" as="targetPoint" />
          </mxGeometry>
        </mxCell>
        <mxCell id="qmBoPjlOPHL58pMZ6DA_-56" value="User login accepted" style="text;html=1;align=center;verticalAlign=middle;resizable=0;points=[];autosize=1;strokeColor=none;fillColor=none;" vertex="1" parent="1">
          <mxGeometry x="310" y="590" width="130" height="30" as="geometry" />
        </mxCell>
        <mxCell id="qmBoPjlOPHL58pMZ6DA_-57" value="Ответ" style="text;html=1;align=center;verticalAlign=middle;resizable=0;points=[];autosize=1;strokeColor=none;fillColor=none;" vertex="1" parent="1">
          <mxGeometry x="354" y="610" width="60" height="30" as="geometry" />
        </mxCell>
        <mxCell id="qmBoPjlOPHL58pMZ6DA_-58" style="edgeStyle=orthogonalEdgeStyle;rounded=0;orthogonalLoop=1;jettySize=auto;html=1;entryX=0;entryY=0.5;entryDx=0;entryDy=0;" edge="1" parent="1" source="qmBoPjlOPHL58pMZ6DA_-54" target="qmBoPjlOPHL58pMZ6DA_-54">
          <mxGeometry relative="1" as="geometry" />
        </mxCell>
        <mxCell id="qmBoPjlOPHL58pMZ6DA_-59" value="Redirect to the&amp;nbsp;&lt;div&gt;main page&lt;/div&gt;" style="text;html=1;align=center;verticalAlign=middle;resizable=0;points=[];autosize=1;strokeColor=none;fillColor=none;" vertex="1" parent="1">
          <mxGeometry x="175" y="573" width="100" height="40" as="geometry" />
        </mxCell>
        <mxCell id="qmBoPjlOPHL58pMZ6DA_-61" value="" style="rounded=0;whiteSpace=wrap;html=1;" vertex="1" parent="1">
          <mxGeometry x="265" y="705" width="10" height="45" as="geometry" />
        </mxCell>
        <mxCell id="qmBoPjlOPHL58pMZ6DA_-62" value="" style="rounded=0;whiteSpace=wrap;html=1;" vertex="1" parent="1">
          <mxGeometry x="55" y="705" width="10" height="45" as="geometry" />
        </mxCell>
        <mxCell id="qmBoPjlOPHL58pMZ6DA_-64" value="User login denied" style="html=1;verticalAlign=bottom;endArrow=open;dashed=1;endSize=8;curved=0;rounded=0;entryX=1;entryY=0.5;entryDx=0;entryDy=0;exitX=0.176;exitY=0.915;exitDx=0;exitDy=0;exitPerimeter=0;" edge="1" parent="1" source="qmBoPjlOPHL58pMZ6DA_-41" target="qmBoPjlOPHL58pMZ6DA_-61">
          <mxGeometry relative="1" as="geometry">
            <mxPoint x="495" y="720" as="sourcePoint" />
            <mxPoint x="415" y="720" as="targetPoint" />
          </mxGeometry>
        </mxCell>
        <mxCell id="qmBoPjlOPHL58pMZ6DA_-65" value="Clear fields" style="html=1;verticalAlign=bottom;endArrow=open;dashed=1;endSize=8;curved=0;rounded=0;entryX=1;entryY=0.5;entryDx=0;entryDy=0;exitX=0;exitY=0.5;exitDx=0;exitDy=0;" edge="1" parent="1" source="qmBoPjlOPHL58pMZ6DA_-61">
          <mxGeometry relative="1" as="geometry">
            <mxPoint x="285" y="720" as="sourcePoint" />
            <mxPoint x="65" y="728" as="targetPoint" />
          </mxGeometry>
        </mxCell>
        <mxCell id="qmBoPjlOPHL58pMZ6DA_-66" value="Data base" style="shape=umlLifeline;perimeter=lifelinePerimeter;whiteSpace=wrap;html=1;container=1;dropTarget=0;collapsible=0;recursiveResize=0;outlineConnect=0;portConstraint=eastwest;newEdgeStyle={&quot;curved&quot;:0,&quot;rounded&quot;:0};" vertex="1" parent="1">
          <mxGeometry x="680" y="100" width="100" height="300" as="geometry" />
        </mxCell>
        <mxCell id="qmBoPjlOPHL58pMZ6DA_-67" value="Самостоятельное задание: Разработать диаграмму последовательности для добавления товара в корзину в инт магазине. Диаграмма должна показывать взаимодействие пользователя и действия без фреймов.&lt;div&gt;Цель: Визуализировать добавления товара в корзину, отображая последовательность сообщений между объектами системы.&lt;/div&gt;&lt;div&gt;Элементы:1 Актор(покупатель), объекты(страница товара, корзина покупок, система управления запасами, которая проверяет наличие товара)&lt;/div&gt;&lt;div&gt;&lt;br&gt;&lt;/div&gt;&lt;div&gt;&lt;br&gt;&lt;/div&gt;" style="text;html=1;align=center;verticalAlign=middle;resizable=0;points=[];autosize=1;strokeColor=none;fillColor=none;" vertex="1" parent="1">
          <mxGeometry x="-50" y="800" width="1210" height="90" as="geometry" />
        </mxCell>
        <mxCell id="qmBoPjlOPHL58pMZ6DA_-68" value="" style="shape=umlLifeline;perimeter=lifelinePerimeter;whiteSpace=wrap;html=1;container=1;dropTarget=0;collapsible=0;recursiveResize=0;outlineConnect=0;portConstraint=eastwest;newEdgeStyle={&quot;curved&quot;:0,&quot;rounded&quot;:0};participant=umlActor;" vertex="1" parent="1">
          <mxGeometry x="-10" y="950" width="20" height="880" as="geometry" />
        </mxCell>
        <mxCell id="qmBoPjlOPHL58pMZ6DA_-103" value="" style="html=1;points=[[0,0,0,0,5],[0,1,0,0,-5],[1,0,0,0,5],[1,1,0,0,-5]];perimeter=orthogonalPerimeter;outlineConnect=0;targetShapes=umlLifeline;portConstraint=eastwest;newEdgeStyle={&quot;curved&quot;:0,&quot;rounded&quot;:0};" vertex="1" parent="qmBoPjlOPHL58pMZ6DA_-68">
          <mxGeometry x="5" y="290" width="10" height="540" as="geometry" />
        </mxCell>
        <mxCell id="qmBoPjlOPHL58pMZ6DA_-104" value="" style="html=1;points=[[0,0,0,0,5],[0,1,0,0,-5],[1,0,0,0,5],[1,1,0,0,-5]];perimeter=orthogonalPerimeter;outlineConnect=0;targetShapes=umlLifeline;portConstraint=eastwest;newEdgeStyle={&quot;curved&quot;:0,&quot;rounded&quot;:0};" vertex="1" parent="qmBoPjlOPHL58pMZ6DA_-68">
          <mxGeometry x="5" y="120" width="10" height="80" as="geometry" />
        </mxCell>
        <mxCell id="qmBoPjlOPHL58pMZ6DA_-69" value="Customer" style="text;html=1;align=center;verticalAlign=middle;resizable=0;points=[];autosize=1;strokeColor=none;fillColor=none;" vertex="1" parent="1">
          <mxGeometry x="-40" y="920" width="80" height="30" as="geometry" />
        </mxCell>
        <mxCell id="qmBoPjlOPHL58pMZ6DA_-70" value="Shopping page" style="shape=umlLifeline;perimeter=lifelinePerimeter;whiteSpace=wrap;html=1;container=1;dropTarget=0;collapsible=0;recursiveResize=0;outlineConnect=0;portConstraint=eastwest;newEdgeStyle={&quot;curved&quot;:0,&quot;rounded&quot;:0};" vertex="1" parent="1">
          <mxGeometry x="140" y="950" width="100" height="880" as="geometry" />
        </mxCell>
        <mxCell id="qmBoPjlOPHL58pMZ6DA_-73" value="" style="html=1;points=[[0,0,0,0,5],[0,1,0,0,-5],[1,0,0,0,5],[1,1,0,0,-5]];perimeter=orthogonalPerimeter;outlineConnect=0;targetShapes=umlLifeline;portConstraint=eastwest;newEdgeStyle={&quot;curved&quot;:0,&quot;rounded&quot;:0};" vertex="1" parent="qmBoPjlOPHL58pMZ6DA_-70">
          <mxGeometry x="45" y="120" width="10" height="80" as="geometry" />
        </mxCell>
        <mxCell id="qmBoPjlOPHL58pMZ6DA_-85" value="" style="html=1;points=[[0,0,0,0,5],[0,1,0,0,-5],[1,0,0,0,5],[1,1,0,0,-5]];perimeter=orthogonalPerimeter;outlineConnect=0;targetShapes=umlLifeline;portConstraint=eastwest;newEdgeStyle={&quot;curved&quot;:0,&quot;rounded&quot;:0};" vertex="1" parent="qmBoPjlOPHL58pMZ6DA_-70">
          <mxGeometry x="45" y="330" width="10" height="80" as="geometry" />
        </mxCell>
        <mxCell id="qmBoPjlOPHL58pMZ6DA_-71" value="Shopping cart" style="shape=umlLifeline;perimeter=lifelinePerimeter;whiteSpace=wrap;html=1;container=1;dropTarget=0;collapsible=0;recursiveResize=0;outlineConnect=0;portConstraint=eastwest;newEdgeStyle={&quot;curved&quot;:0,&quot;rounded&quot;:0};" vertex="1" parent="1">
          <mxGeometry x="325" y="950" width="100" height="880" as="geometry" />
        </mxCell>
        <mxCell id="qmBoPjlOPHL58pMZ6DA_-75" value="" style="html=1;points=[[0,0,0,0,5],[0,1,0,0,-5],[1,0,0,0,5],[1,1,0,0,-5]];perimeter=orthogonalPerimeter;outlineConnect=0;targetShapes=umlLifeline;portConstraint=eastwest;newEdgeStyle={&quot;curved&quot;:0,&quot;rounded&quot;:0};" vertex="1" parent="qmBoPjlOPHL58pMZ6DA_-71">
          <mxGeometry x="45" y="330" width="10" height="80" as="geometry" />
        </mxCell>
        <mxCell id="qmBoPjlOPHL58pMZ6DA_-72" value="Inventory checker" style="shape=umlLifeline;perimeter=lifelinePerimeter;whiteSpace=wrap;html=1;container=1;dropTarget=0;collapsible=0;recursiveResize=0;outlineConnect=0;portConstraint=eastwest;newEdgeStyle={&quot;curved&quot;:0,&quot;rounded&quot;:0};size=40;" vertex="1" parent="1">
          <mxGeometry x="560" y="950" width="100" height="880" as="geometry" />
        </mxCell>
        <mxCell id="qmBoPjlOPHL58pMZ6DA_-80" value="" style="html=1;points=[[0,0,0,0,5],[0,1,0,0,-5],[1,0,0,0,5],[1,1,0,0,-5]];perimeter=orthogonalPerimeter;outlineConnect=0;targetShapes=umlLifeline;portConstraint=eastwest;newEdgeStyle={&quot;curved&quot;:0,&quot;rounded&quot;:0};" vertex="1" parent="qmBoPjlOPHL58pMZ6DA_-72">
          <mxGeometry x="40" y="330" width="10" height="470" as="geometry" />
        </mxCell>
        <mxCell id="qmBoPjlOPHL58pMZ6DA_-74" value="Choose the product" style="html=1;verticalAlign=bottom;startArrow=oval;endArrow=block;startSize=8;curved=0;rounded=0;entryX=0;entryY=0;entryDx=0;entryDy=5;" edge="1" target="qmBoPjlOPHL58pMZ6DA_-73" parent="1" source="qmBoPjlOPHL58pMZ6DA_-68">
          <mxGeometry relative="1" as="geometry">
            <mxPoint x="115" y="1075" as="sourcePoint" />
          </mxGeometry>
        </mxCell>
        <mxCell id="qmBoPjlOPHL58pMZ6DA_-76" value="Send request Add to shopping cart" style="html=1;verticalAlign=bottom;startArrow=oval;endArrow=block;startSize=8;curved=0;rounded=0;entryX=0;entryY=0;entryDx=0;entryDy=5;" edge="1" target="qmBoPjlOPHL58pMZ6DA_-75" parent="1" source="qmBoPjlOPHL58pMZ6DA_-70">
          <mxGeometry relative="1" as="geometry">
            <mxPoint x="295" y="1285" as="sourcePoint" />
          </mxGeometry>
        </mxCell>
        <mxCell id="qmBoPjlOPHL58pMZ6DA_-81" value="Check aviable" style="html=1;verticalAlign=bottom;endArrow=block;curved=0;rounded=0;entryX=0;entryY=0;entryDx=0;entryDy=5;" edge="1" target="qmBoPjlOPHL58pMZ6DA_-80" parent="1" source="qmBoPjlOPHL58pMZ6DA_-71">
          <mxGeometry relative="1" as="geometry">
            <mxPoint x="530" y="1285" as="sourcePoint" />
          </mxGeometry>
        </mxCell>
        <mxCell id="qmBoPjlOPHL58pMZ6DA_-86" value="Click button &quot;Add to shopping card&quot;" style="html=1;verticalAlign=bottom;startArrow=oval;endArrow=block;startSize=8;curved=0;rounded=0;entryX=0;entryY=0;entryDx=0;entryDy=5;" edge="1" target="qmBoPjlOPHL58pMZ6DA_-85" parent="1" source="qmBoPjlOPHL58pMZ6DA_-68">
          <mxGeometry relative="1" as="geometry">
            <mxPoint x="115" y="1285" as="sourcePoint" />
          </mxGeometry>
        </mxCell>
        <mxCell id="qmBoPjlOPHL58pMZ6DA_-87" value="alt" style="shape=umlFrame;whiteSpace=wrap;html=1;pointerEvents=0;" vertex="1" parent="1">
          <mxGeometry y="1480" width="650" height="320" as="geometry" />
        </mxCell>
        <mxCell id="qmBoPjlOPHL58pMZ6DA_-90" value="" style="endArrow=none;dashed=1;html=1;rounded=0;entryX=1.008;entryY=0.504;entryDx=0;entryDy=0;entryPerimeter=0;" edge="1" parent="1" target="qmBoPjlOPHL58pMZ6DA_-87">
          <mxGeometry width="50" height="50" relative="1" as="geometry">
            <mxPoint y="1640" as="sourcePoint" />
            <mxPoint x="50" y="1590" as="targetPoint" />
          </mxGeometry>
        </mxCell>
        <mxCell id="qmBoPjlOPHL58pMZ6DA_-91" value="(aviable)" style="text;html=1;align=center;verticalAlign=middle;resizable=0;points=[];autosize=1;strokeColor=none;fillColor=none;" vertex="1" parent="1">
          <mxGeometry x="-5" y="1528" width="70" height="30" as="geometry" />
        </mxCell>
        <mxCell id="qmBoPjlOPHL58pMZ6DA_-92" value="(non aviable)" style="text;html=1;align=center;verticalAlign=middle;resizable=0;points=[];autosize=1;strokeColor=none;fillColor=none;" vertex="1" parent="1">
          <mxGeometry x="-15" y="1670" width="90" height="30" as="geometry" />
        </mxCell>
        <mxCell id="qmBoPjlOPHL58pMZ6DA_-93" value="" style="endArrow=none;dashed=1;endFill=0;endSize=12;html=1;rounded=0;startArrow=classic;startFill=1;exitX=1;exitY=0.25;exitDx=0;exitDy=0;" edge="1" parent="1" source="qmBoPjlOPHL58pMZ6DA_-94">
          <mxGeometry width="160" relative="1" as="geometry">
            <mxPoint x="440" y="1558" as="sourcePoint" />
            <mxPoint x="600" y="1555" as="targetPoint" />
          </mxGeometry>
        </mxCell>
        <mxCell id="qmBoPjlOPHL58pMZ6DA_-94" value="" style="rounded=0;whiteSpace=wrap;html=1;" vertex="1" parent="1">
          <mxGeometry x="370" y="1540" width="10" height="60" as="geometry" />
        </mxCell>
        <mxCell id="qmBoPjlOPHL58pMZ6DA_-95" value="Product add to shopping cart" style="text;html=1;align=center;verticalAlign=middle;whiteSpace=wrap;rounded=0;" vertex="1" parent="1">
          <mxGeometry x="410" y="1528" width="170" height="30" as="geometry" />
        </mxCell>
        <mxCell id="qmBoPjlOPHL58pMZ6DA_-96" value="" style="endArrow=none;dashed=1;endFill=0;endSize=12;html=1;rounded=0;startArrow=classic;startFill=1;exitX=1;exitY=0.25;exitDx=0;exitDy=0;" edge="1" source="qmBoPjlOPHL58pMZ6DA_-97" parent="1">
          <mxGeometry width="160" relative="1" as="geometry">
            <mxPoint x="440" y="1712" as="sourcePoint" />
            <mxPoint x="600" y="1709" as="targetPoint" />
          </mxGeometry>
        </mxCell>
        <mxCell id="qmBoPjlOPHL58pMZ6DA_-97" value="" style="rounded=0;whiteSpace=wrap;html=1;" vertex="1" parent="1">
          <mxGeometry x="370" y="1694" width="10" height="60" as="geometry" />
        </mxCell>
        <mxCell id="qmBoPjlOPHL58pMZ6DA_-98" value="return non aviable" style="text;html=1;align=center;verticalAlign=middle;whiteSpace=wrap;rounded=0;" vertex="1" parent="1">
          <mxGeometry x="410" y="1682" width="170" height="30" as="geometry" />
        </mxCell>
        <mxCell id="qmBoPjlOPHL58pMZ6DA_-99" value="" style="endArrow=none;dashed=1;endFill=0;endSize=12;html=1;rounded=0;startArrow=classic;startFill=1;exitX=1;exitY=0.25;exitDx=0;exitDy=0;entryX=-0.05;entryY=0.427;entryDx=0;entryDy=0;entryPerimeter=0;" edge="1" parent="1" target="qmBoPjlOPHL58pMZ6DA_-97">
          <mxGeometry width="160" relative="1" as="geometry">
            <mxPoint x="193.5" y="1718" as="sourcePoint" />
            <mxPoint x="370" y="1727.9899999999998" as="targetPoint" />
          </mxGeometry>
        </mxCell>
        <mxCell id="qmBoPjlOPHL58pMZ6DA_-102" style="edgeStyle=orthogonalEdgeStyle;rounded=0;orthogonalLoop=1;jettySize=auto;html=1;dashed=1;" edge="1" parent="1">
          <mxGeometry relative="1" as="geometry">
            <mxPoint x="190.00000000000023" y="1718.0000000000005" as="sourcePoint" />
            <mxPoint x="4.630434782608745" y="1718.0000000000005" as="targetPoint" />
            <Array as="points">
              <mxPoint x="45" y="1718" />
              <mxPoint x="45" y="1718" />
            </Array>
          </mxGeometry>
        </mxCell>
        <mxCell id="qmBoPjlOPHL58pMZ6DA_-100" value="" style="rounded=0;whiteSpace=wrap;html=1;" vertex="1" parent="1">
          <mxGeometry x="185" y="1694" width="10" height="60" as="geometry" />
        </mxCell>
        <mxCell id="qmBoPjlOPHL58pMZ6DA_-101" value="show message &quot;non aviable&quot;" style="text;html=1;align=center;verticalAlign=middle;whiteSpace=wrap;rounded=0;" vertex="1" parent="1">
          <mxGeometry x="200" y="1694" width="170" height="30" as="geometry" />
        </mxCell>
        <mxCell id="qmBoPjlOPHL58pMZ6DA_-105" value="show message &quot;non aviable&quot;" style="text;html=1;align=center;verticalAlign=middle;whiteSpace=wrap;rounded=0;" vertex="1" parent="1">
          <mxGeometry x="20" y="1694" width="170" height="30" as="geometry" />
        </mxCell>
        <mxCell id="qmBoPjlOPHL58pMZ6DA_-113" value="show message &quot;sucesfully add to shopping cart&quot;" style="text;html=1;align=center;verticalAlign=middle;whiteSpace=wrap;rounded=0;" vertex="1" parent="1">
          <mxGeometry x="195" y="1528" width="170" height="30" as="geometry" />
        </mxCell>
        <mxCell id="qmBoPjlOPHL58pMZ6DA_-114" value="" style="endArrow=none;dashed=1;endFill=0;endSize=12;html=1;rounded=0;startArrow=classic;startFill=1;exitX=0;exitY=1;exitDx=0;exitDy=0;entryX=-0.113;entryY=0.327;entryDx=0;entryDy=0;entryPerimeter=0;" edge="1" parent="1" source="qmBoPjlOPHL58pMZ6DA_-113" target="qmBoPjlOPHL58pMZ6DA_-94">
          <mxGeometry width="160" relative="1" as="geometry">
            <mxPoint x="150" y="1555" as="sourcePoint" />
            <mxPoint x="370" y="1555" as="targetPoint" />
          </mxGeometry>
        </mxCell>
        <mxCell id="qmBoPjlOPHL58pMZ6DA_-115" value="" style="rounded=0;whiteSpace=wrap;html=1;" vertex="1" parent="1">
          <mxGeometry x="185" y="1540" width="10" height="60" as="geometry" />
        </mxCell>
        <mxCell id="qmBoPjlOPHL58pMZ6DA_-116" value="show message &quot;sucesfully add to shopping cart&quot;" style="text;html=1;align=center;verticalAlign=middle;whiteSpace=wrap;rounded=0;" vertex="1" parent="1">
          <mxGeometry x="11" y="1554" width="170" height="30" as="geometry" />
        </mxCell>
        <mxCell id="qmBoPjlOPHL58pMZ6DA_-117" value="" style="endArrow=none;dashed=1;endFill=0;endSize=12;html=1;rounded=0;startArrow=classic;startFill=1;exitX=0;exitY=0.331;exitDx=0;exitDy=0;entryX=-0.113;entryY=0.327;entryDx=0;entryDy=0;entryPerimeter=0;exitPerimeter=0;" edge="1" source="qmBoPjlOPHL58pMZ6DA_-87" parent="1">
          <mxGeometry width="160" relative="1" as="geometry">
            <mxPoint x="-34" y="1581" as="sourcePoint" />
            <mxPoint x="185" y="1586" as="targetPoint" />
          </mxGeometry>
        </mxCell>
      </root>
    </mxGraphModel>
  </diagram>
</mxfile>
